<svg xmlns="http://www.w3.org/2000/svg" xmlns:xlink="http://www.w3.org/1999/xlink" width="531" zoomAndPan="magnify" viewBox="0 0 398.25 386.999991" height="516" preserveAspectRatio="xMidYMid meet" version="1.0"><defs><filter x="0%" y="0%" width="100%" height="100%" id="c682c46aee"><feColorMatrix values="0 0 0 0 1 0 0 0 0 1 0 0 0 0 1 0 0 0 1 0" color-interpolation-filters="sRGB"/></filter><g/><clipPath id="a06b27a35d"><path d="M 69 46 L 352 46 L 352 341 L 69 341 Z M 69 46 " clip-rule="nonzero"/></clipPath><clipPath id="954af0db1b"><path d="M 127.828125 386.273438 L 11.492188 116.871094 L 280.894531 0.535156 L 397.230469 269.933594 Z M 127.828125 386.273438 " clip-rule="nonzero"/></clipPath><clipPath id="8fbadf7c0f"><path d="M 127.828125 386.273438 L 11.492188 116.871094 L 280.894531 0.535156 L 397.230469 269.933594 Z M 127.828125 386.273438 " clip-rule="nonzero"/></clipPath><clipPath id="696d5a1d90"><path d="M 127.828125 386.273438 L 11.492188 116.871094 L 280.894531 0.535156 L 397.230469 269.933594 Z M 127.828125 386.273438 " clip-rule="nonzero"/></clipPath><mask id="405c434291"><g filter="url(#c682c46aee)"><rect x="-39.825" width="477.9" fill="#000000" y="-38.699999" height="464.399989" fill-opacity="0.87"/></g></mask><clipPath id="167b9a26d2"><path d="M 0.839844 0.386719 L 93.527344 0.386719 L 93.527344 119.148438 L 0.839844 119.148438 Z M 0.839844 0.386719 " clip-rule="nonzero"/></clipPath><clipPath id="4ad7b4ca76"><rect x="0" width="94" y="0" height="120"/></clipPath><clipPath id="012d1a2ab3"><rect x="0" width="105" y="0" height="165"/></clipPath><clipPath id="4ec6048f35"><rect x="0" width="66" y="0" height="110"/></clipPath><clipPath id="7b69ef986c"><rect x="0" width="74" y="0" height="130"/></clipPath></defs><g clip-path="url(#a06b27a35d)"><g clip-path="url(#954af0db1b)"><g clip-path="url(#8fbadf7c0f)"><g clip-path="url(#696d5a1d90)"><path fill="#000000" d="M 339.0625 135.234375 C 371.144531 209.53125 336.828125 296.019531 262.53125 328.101562 C 188.230469 360.1875 101.746094 325.867188 69.660156 251.570312 L 71.101562 250.949219 C 102.84375 324.453125 188.402344 358.40625 261.90625 326.664062 C 335.414062 294.921875 369.363281 209.363281 337.621094 135.855469 C 305.878906 62.351562 220.320312 28.398438 146.8125 60.140625 L 146.191406 58.703125 C 220.492188 26.617188 306.976562 60.9375 339.0625 135.234375 Z M 339.0625 135.234375 " fill-opacity="1" fill-rule="nonzero"/></g></g></g></g><g fill="#3a3a3c" fill-opacity="1"><g transform="translate(72.912678, 245.411029)"><g><path d="M -0.140625 -0.578125 L -20.875 -2.859375 L -21.5625 -5.625 L -4.21875 -17.28125 L -3.59375 -14.734375 L -13.953125 -7.953125 C -14.617188 -7.523438 -15.421875 -7.019531 -16.359375 -6.4375 C -17.304688 -5.851562 -18.523438 -5.128906 -20.015625 -4.265625 L -20.140625 -4.765625 C -18.410156 -4.691406 -16.984375 -4.613281 -15.859375 -4.53125 C -14.734375 -4.445312 -13.804688 -4.378906 -13.078125 -4.328125 L -0.765625 -3.125 Z M -6.3125 -2.796875 L -8.421875 -2.28125 L -10.78125 -11.953125 L -8.671875 -12.46875 Z M -6.3125 -2.796875 "/></g></g></g><g fill="#3a3a3c" fill-opacity="1"><g transform="translate(68.302905, 226.031798)"><g><path d="M -6 -3.359375 L -8.75 -3.078125 C -9.382812 -3.441406 -9.992188 -3.816406 -10.578125 -4.203125 C -11.160156 -4.597656 -11.742188 -5 -12.328125 -5.40625 C -12.910156 -5.8125 -13.476562 -6.226562 -14.03125 -6.65625 L -20.96875 -11.84375 L -21.3125 -15.0625 L -11.5 -7.6875 L -11.515625 -7.546875 Z M -0.234375 -2.265625 L -19.734375 -0.203125 L -20 -2.65625 L -13.296875 -3.375 L -9.109375 -3.78125 L -7.90625 -3.9375 L -0.5 -4.71875 Z M -1.5 -14.234375 L -10.6875 -6.09375 L -12.78125 -7.421875 L -1.8125 -17.140625 Z M -1.5 -14.234375 "/></g></g></g><g fill="#3a3a3c" fill-opacity="1"><g transform="translate(66.386268, 206.66126)"><g><path d="M -17.390625 -1.578125 L -19.578125 -1.640625 L -19.203125 -16.546875 L -17.015625 -16.484375 L -17.171875 -10.28125 L 0.25 -9.84375 L 0.1875 -7.375 L -17.234375 -7.8125 Z M -17.390625 -1.578125 "/></g></g></g><g fill="#3a3a3c" fill-opacity="1"><g transform="translate(67.202929, 187.608222)"><g><path d="M -18.890625 -7.09375 L 0.578125 -4.71875 L 0.28125 -2.265625 L -19.1875 -4.640625 Z M -18.890625 -7.09375 "/></g></g></g><g fill="#3a3a3c" fill-opacity="1"><g transform="translate(68.009905, 178.797212)"><g><path d="M 2.59375 -9.9375 C 2.21875 -8.289062 1.476562 -6.921875 0.375 -5.828125 C -0.726562 -4.734375 -2.097656 -3.988281 -3.734375 -3.59375 C -5.378906 -3.195312 -7.203125 -3.226562 -9.203125 -3.6875 C -11.203125 -4.15625 -12.847656 -4.925781 -14.140625 -6 C -15.441406 -7.070312 -16.347656 -8.34375 -16.859375 -9.8125 C -17.367188 -11.28125 -17.4375 -12.835938 -17.0625 -14.484375 C -16.675781 -16.140625 -15.929688 -17.507812 -14.828125 -18.59375 C -13.734375 -19.675781 -12.363281 -20.414062 -10.71875 -20.8125 C -9.082031 -21.21875 -7.265625 -21.1875 -5.265625 -20.71875 C -3.265625 -20.257812 -1.613281 -19.488281 -0.3125 -18.40625 C 0.976562 -17.332031 1.878906 -16.066406 2.390625 -14.609375 C 2.910156 -13.148438 2.976562 -11.59375 2.59375 -9.9375 Z M 0.34375 -10.453125 C 0.613281 -11.597656 0.566406 -12.703125 0.203125 -13.765625 C -0.160156 -14.828125 -0.84375 -15.765625 -1.84375 -16.578125 C -2.851562 -17.390625 -4.175781 -17.984375 -5.8125 -18.359375 C -7.445312 -18.742188 -8.894531 -18.789062 -10.15625 -18.5 C -11.414062 -18.207031 -12.441406 -17.664062 -13.234375 -16.875 C -14.023438 -16.082031 -14.554688 -15.113281 -14.828125 -13.96875 C -15.085938 -12.820312 -15.035156 -11.710938 -14.671875 -10.640625 C -14.304688 -9.578125 -13.617188 -8.640625 -12.609375 -7.828125 C -11.609375 -7.023438 -10.289062 -6.429688 -8.65625 -6.046875 C -7.019531 -5.671875 -5.578125 -5.625 -4.328125 -5.90625 C -3.078125 -6.195312 -2.050781 -6.738281 -1.25 -7.53125 C -0.445312 -8.332031 0.0820312 -9.304688 0.34375 -10.453125 Z M 0.34375 -10.453125 "/></g></g></g><g fill="#3a3a3c" fill-opacity="1"><g transform="translate(73.078125, 157.445461)"><g><path d="M 0.84375 -2.125 L -17.40625 -9.3125 L -16.359375 -12 L -1.703125 -14.828125 C -1.328125 -14.910156 -0.851562 -14.992188 -0.28125 -15.078125 C 0.28125 -15.160156 0.90625 -15.242188 1.59375 -15.328125 C 2.289062 -15.421875 3.015625 -15.492188 3.765625 -15.546875 L 3.734375 -15.203125 C 3.078125 -15.390625 2.425781 -15.59375 1.78125 -15.8125 C 1.144531 -16.039062 0.554688 -16.257812 0.015625 -16.46875 C -0.523438 -16.675781 -0.96875 -16.847656 -1.3125 -16.984375 L -12.640625 -21.4375 L -11.734375 -23.71875 L 6.515625 -16.53125 L 5.4375 -13.8125 L -7.59375 -11.296875 C -8.132812 -11.203125 -8.71875 -11.097656 -9.34375 -10.984375 C -9.976562 -10.878906 -10.71875 -10.765625 -11.5625 -10.640625 C -12.414062 -10.515625 -13.441406 -10.375 -14.640625 -10.21875 L -14.609375 -10.65625 C -13.679688 -10.320312 -12.828125 -10.019531 -12.046875 -9.75 C -11.273438 -9.476562 -10.601562 -9.238281 -10.03125 -9.03125 C -9.46875 -8.832031 -9.019531 -8.664062 -8.6875 -8.53125 L 1.75 -4.421875 Z M 0.84375 -2.125 "/></g></g></g><g fill="#3a3a3c" fill-opacity="1"><g transform="translate(81.176821, 137.464467)"><g><path d="M 4.515625 -7.3125 C 3.816406 -6.070312 3 -5.109375 2.0625 -4.421875 C 1.125 -3.734375 0.140625 -3.34375 -0.890625 -3.25 C -1.921875 -3.164062 -2.957031 -3.375 -4 -3.875 L -2.765625 -6.078125 C -2.046875 -5.742188 -1.359375 -5.628906 -0.703125 -5.734375 C -0.046875 -5.847656 0.5625 -6.140625 1.125 -6.609375 C 1.6875 -7.085938 2.171875 -7.6875 2.578125 -8.40625 C 3.023438 -9.195312 3.296875 -9.96875 3.390625 -10.71875 C 3.484375 -11.476562 3.40625 -12.160156 3.15625 -12.765625 C 2.90625 -13.378906 2.472656 -13.859375 1.859375 -14.203125 C 1.328125 -14.503906 0.804688 -14.609375 0.296875 -14.515625 C -0.210938 -14.429688 -0.726562 -14.195312 -1.25 -13.8125 C -1.769531 -13.4375 -2.300781 -12.96875 -2.84375 -12.40625 L -4.5625 -10.703125 C -5.78125 -9.453125 -6.960938 -8.648438 -8.109375 -8.296875 C -9.265625 -7.941406 -10.410156 -8.082031 -11.546875 -8.71875 C -12.515625 -9.269531 -13.21875 -10.003906 -13.65625 -10.921875 C -14.09375 -11.835938 -14.257812 -12.851562 -14.15625 -13.96875 C -14.0625 -15.082031 -13.703125 -16.203125 -13.078125 -17.328125 C -12.429688 -18.460938 -11.660156 -19.347656 -10.765625 -19.984375 C -9.867188 -20.628906 -8.925781 -21 -7.9375 -21.09375 C -6.957031 -21.1875 -6.003906 -20.992188 -5.078125 -20.515625 L -6.265625 -18.40625 C -7.191406 -18.800781 -8.09375 -18.785156 -8.96875 -18.359375 C -9.851562 -17.941406 -10.59375 -17.207031 -11.1875 -16.15625 C -11.601562 -15.425781 -11.84375 -14.710938 -11.90625 -14.015625 C -11.976562 -13.316406 -11.890625 -12.691406 -11.640625 -12.140625 C -11.398438 -11.597656 -11.015625 -11.175781 -10.484375 -10.875 C -9.921875 -10.5625 -9.363281 -10.476562 -8.8125 -10.625 C -8.269531 -10.769531 -7.75 -11.035156 -7.25 -11.421875 C -6.75 -11.804688 -6.285156 -12.210938 -5.859375 -12.640625 L -4.40625 -14.109375 C -3.957031 -14.585938 -3.457031 -15.039062 -2.90625 -15.46875 C -2.351562 -15.90625 -1.757812 -16.257812 -1.125 -16.53125 C -0.5 -16.8125 0.164062 -16.953125 0.875 -16.953125 C 1.582031 -16.960938 2.304688 -16.753906 3.046875 -16.328125 C 4.003906 -15.796875 4.710938 -15.070312 5.171875 -14.15625 C 5.640625 -13.238281 5.828125 -12.191406 5.734375 -11.015625 C 5.648438 -9.847656 5.242188 -8.613281 4.515625 -7.3125 Z M 4.515625 -7.3125 "/></g></g></g><g fill="#3a3a3c" fill-opacity="1"><g transform="translate(90.458556, 121.187608)"><g><path d="M -13.28125 -11.34375 L -15.03125 -12.65625 L -6.125 -24.59375 L -4.375 -23.28125 L -8.078125 -18.3125 L 5.890625 -7.890625 L 4.40625 -5.90625 L -9.5625 -16.328125 Z M -13.28125 -11.34375 "/></g></g></g><g fill="#3a3a3c" fill-opacity="1"><g transform="translate(101.72905, 106.192276)"><g><path d="M 0.421875 -0.421875 L -8.625 -19.234375 L -6.640625 -21.28125 L 12.421875 -12.71875 L 10.59375 -10.859375 L -0.65625 -16.046875 C -1.351562 -16.367188 -2.203125 -16.78125 -3.203125 -17.28125 C -4.203125 -17.78125 -5.46875 -18.429688 -7 -19.234375 L -6.640625 -19.609375 C -5.773438 -18.097656 -5.078125 -16.84375 -4.546875 -15.84375 C -4.023438 -14.851562 -3.597656 -14.03125 -3.265625 -13.375 L 2.25 -2.296875 Z M -0.953125 -6.828125 L -2.515625 -8.359375 L 4.421875 -15.484375 L 5.984375 -13.953125 Z M -0.953125 -6.828125 "/></g></g></g><g fill="#3a3a3c" fill-opacity="1"><g transform="translate(115.635428, 92.007371)"><g><path d="M 8.359375 -6.078125 C 6.972656 -5.015625 5.5 -4.40625 3.9375 -4.25 C 2.382812 -4.101562 0.859375 -4.398438 -0.640625 -5.140625 C -2.140625 -5.878906 -3.519531 -7.0625 -4.78125 -8.6875 C -6.03125 -10.320312 -6.820312 -11.960938 -7.15625 -13.609375 C -7.5 -15.253906 -7.398438 -16.800781 -6.859375 -18.25 C -6.328125 -19.707031 -5.390625 -20.953125 -4.046875 -21.984375 C -3.222656 -22.617188 -2.359375 -23.085938 -1.453125 -23.390625 C -0.546875 -23.703125 0.359375 -23.847656 1.265625 -23.828125 C 2.179688 -23.804688 3.066406 -23.625 3.921875 -23.28125 C 4.785156 -22.9375 5.578125 -22.4375 6.296875 -21.78125 L 4.296875 -20.234375 C 3.753906 -20.628906 3.191406 -20.921875 2.609375 -21.109375 C 2.035156 -21.304688 1.445312 -21.410156 0.84375 -21.421875 C 0.25 -21.429688 -0.335938 -21.332031 -0.921875 -21.125 C -1.515625 -20.914062 -2.085938 -20.597656 -2.640625 -20.171875 C -3.578125 -19.453125 -4.234375 -18.554688 -4.609375 -17.484375 C -4.992188 -16.421875 -5.050781 -15.265625 -4.78125 -14.015625 C -4.507812 -12.765625 -3.867188 -11.484375 -2.859375 -10.171875 C -1.847656 -8.867188 -0.773438 -7.925781 0.359375 -7.34375 C 1.503906 -6.769531 2.644531 -6.53125 3.78125 -6.625 C 4.914062 -6.71875 5.972656 -7.140625 6.953125 -7.890625 C 7.828125 -8.566406 8.457031 -9.351562 8.84375 -10.25 C 9.238281 -11.144531 9.359375 -12.085938 9.203125 -13.078125 C 9.054688 -14.066406 8.625 -15.019531 7.90625 -15.9375 L 8.578125 -16.296875 L 3.953125 -12.734375 L 2.640625 -14.453125 L 8.59375 -19.03125 L 9.890625 -17.34375 C 10.867188 -16.070312 11.441406 -14.742188 11.609375 -13.359375 C 11.785156 -11.984375 11.59375 -10.664062 11.03125 -9.40625 C 10.476562 -8.144531 9.585938 -7.035156 8.359375 -6.078125 Z M 8.359375 -6.078125 "/></g></g></g><g fill="#3a3a3c" fill-opacity="1"><g transform="translate(132.861085, 79.036293)"><g><path d="M 1.984375 -1.140625 L -7.796875 -18.125 L 2.6875 -24.171875 L 3.765625 -22.28125 L -4.59375 -17.46875 L -1.390625 -11.9375 L 6.40625 -16.421875 L 7.5 -14.515625 L -0.296875 -10.03125 L 3.015625 -4.265625 L 11.453125 -9.125 L 12.546875 -7.234375 Z M 1.984375 -1.140625 "/></g></g></g><g mask="url(#405c434291)"><g transform="matrix(1, 0, 0, 1, 221, 81)"><g clip-path="url(#4ad7b4ca76)"><g clip-path="url(#167b9a26d2)"><path fill="#ffde59" d="M 47.476562 1.402344 C 45.539062 3.519531 43.535156 11.464844 39.421875 32.992188 C 37.070312 45.585938 35.539062 50.464844 33.128906 53.347656 C 30.484375 56.464844 28.953125 56.878906 18.074219 57.410156 C 12.492188 57.703125 6.609375 58.234375 5.019531 58.589844 C 2.433594 59.117188 1.902344 59.472656 1.3125 61.058594 C -0.214844 65.058594 0.898438 65.527344 22.070312 69.410156 C 30.890625 70.996094 33.652344 71.996094 35.007812 74.113281 C 36.304688 76.113281 36.710938 78.058594 38.832031 92.234375 C 41.480469 110.355469 42.777344 116.828125 43.890625 118.058594 C 45.183594 119.472656 47.359375 119.472656 48.765625 118.058594 C 50.179688 116.644531 50.765625 113.820312 52.945312 96.878906 C 55.648438 76.289062 56.0625 74.816406 59.355469 73.878906 C 60.535156 73.582031 66.878906 72.464844 73.527344 71.527344 C 91.046875 68.9375 93.871094 67.878906 93.398438 64.117188 C 93.046875 61.175781 91.167969 60.46875 75.289062 57.46875 C 59.878906 54.527344 57.410156 53.820312 56.761719 52.175781 C 56.230469 50.878906 55.464844 39.523438 54.707031 22.113281 C 54 6.992188 53.46875 3.105469 51.941406 1.402344 C 50.707031 0.046875 48.707031 0.046875 47.476562 1.402344 Z M 50.003906 33.289062 C 50.359375 42.820312 50.949219 51.703125 51.242188 52.992188 C 52.539062 57.933594 55.480469 59.582031 67.0625 61.816406 C 71.417969 62.644531 76.414062 63.640625 78.117188 63.933594 C 79.878906 64.289062 81.175781 64.699219 81.054688 64.816406 C 80.878906 64.9375 75.410156 65.820312 68.882812 66.816406 C 62.296875 67.820312 56.179688 68.992188 55.300781 69.460938 C 52.953125 70.699219 51.359375 73.171875 50.304688 77.167969 C 49.480469 80.285156 46.480469 99.402344 46.480469 101.464844 C 46.480469 103.933594 45.773438 100.640625 44.191406 90.050781 C 43.128906 83.582031 41.898438 76.761719 41.367188 74.816406 C 39.546875 68.164062 35.78125 66.050781 21.671875 63.640625 L 13.261719 62.222656 L 20.90625 62.164062 C 29.960938 62.105469 32.253906 61.515625 35.371094 58.75 C 40.128906 54.453125 41.898438 49.691406 44.957031 32.984375 C 47.484375 19.339844 49.074219 12.457031 49.25 14.453125 C 49.3125 15.277344 49.664062 23.75 50.019531 33.28125 Z M 50.003906 33.289062 " fill-opacity="1" fill-rule="evenodd"/></g></g></g></g><g transform="matrix(1, 0, 0, 1, 103, 77)"><g clip-path="url(#012d1a2ab3)"><g fill="#000000" fill-opacity="1"><g transform="translate(0.947443, 128.122128)"><g><path d="M 32.71875 -18.0625 L 25.65625 0 L 2.578125 0 L 40.703125 -92.203125 L 61.921875 -92.203125 L 100.046875 0 L 76.953125 0 L 69.890625 -18.0625 Z M 51.3125 -65.1875 L 39.796875 -36 L 62.8125 -36 Z M 51.3125 -65.1875 "/></g></g></g></g></g><g transform="matrix(1, 0, 0, 1, 190, 144)"><g clip-path="url(#4ec6048f35)"><g fill="#000000" fill-opacity="1"><g transform="translate(65.779263, 24.454647)"><g><path d="M -19.890625 36.609375 L -44.4375 61.625 L -61.921875 61.625 L -35.703125 34.9375 L -62.78125 0 L -45.8125 0 L -26.296875 25.21875 L -19.890625 18.65625 L -19.890625 0 L -5.59375 0 L -5.59375 61.625 L -19.890625 61.625 Z M -19.890625 36.609375 "/></g></g></g></g></g><g transform="matrix(1, 0, 0, 1, 144, 186)"><g clip-path="url(#7b69ef986c)"><g fill="#000000" fill-opacity="1"><g transform="translate(0.417406, 101.412643)"><g><path d="M 3.546875 -72.671875 L 68.65625 -72.671875 L 68.65625 -58.015625 L 44.546875 -58.015625 L 44.546875 0 L 27.671875 0 L 27.671875 -58.015625 L 3.546875 -58.015625 Z M 3.546875 -72.671875 "/></g></g></g></g></g></svg>