<svg clip-rule="evenodd" fill-rule="evenodd" stroke-linejoin="round" stroke-miterlimit="1.41421" viewBox="0 0 31 16" xmlns="http://www.w3.org/2000/svg" xmlns:xlink="http://www.w3.org/1999/xlink"><clipPath id="a"><path clip-rule="evenodd" d="m0 0h30.72v15.6h-30.72z"/></clipPath><path d="m0 0h30.72v15.6h-30.72z" fill="none"/><g clip-path="url(#a)" fill-rule="nonzero"><path d="m17.982 0-9.007 15.6-9.006-15.6zm-13.509 2.6 4.502 7.799 4.503-7.799z" fill="#e40038"/><path d="m-.031 3.895h18.013v3.901h-18.013z" fill="#231e1e"/><g fill="#fff"><path d="m6.693 6.449.922-1.961h.687l-1.264 2.715h-.692l-1.224-2.715h.662z"/><path d="m11.76 4.488h-1.923v.517h1.299v1.007c0 .485-.374.705-.667.705-.202 0-.536-.098-.656-.51l-.524.127c.085.401.507.934 1.21.934.734 0 1.261-.466 1.261-1.441z"/><path d="m16.637 7.208v-2.717h-.591l-.98 1.281-.98-1.281h-.591v2.717h.624v-1.749l.848 1.106h.197l.849-1.106v1.749z"/><path d="m3.862 4.849c-.288-.297-.711-.455-1.175-.455-.845 0-1.556.52-1.556 1.45s.711 1.45 1.556 1.45c.504 0 .96-.187 1.246-.536l-.488-.357c-.172.222-.45.341-.758.341-.51 0-.938-.322-.938-.898s.428-.898.938-.898c-.001 0-.001 0-.001 0h.001c.285 0 .544.101.718.291zm-1.175-.455s-.001 0-.002 0z"/></g><path d="m19.282 3.895h11.47v3.901h-11.47z" fill="#797775"/><path d="m20.039 7.118h.973c.536 0 .98-.222.98-.735 0-.33-.191-.513-.428-.582v-.016c.191-.076.314-.321.314-.536 0-.49-.421-.62-.943-.62h-.896zm.659-1.516v-.468h.222c.215 0 .315.061.315.215 0 .153-.1.253-.315.253zm0 1.011v-.529h.268c.261 0 .383.069.383.253s-.122.276-.383.276zm2.521.551c.214 0 .49-.076.696-.222l-.214-.39c-.138.076-.26.115-.39.115-.215 0-.383-.077-.445-.307h1.092c.011-.046.026-.161.026-.276 0-.513-.267-.927-.834-.927-.468 0-.92.383-.92 1.004 0 .636.429 1.003.989 1.003zm-.36-1.233c.038-.191.161-.276.306-.276.199 0 .26.13.26.276zm1.486 1.187h.658v-1.065c.092-.237.261-.321.399-.321.084 0 .145.015.214.03l.108-.566c-.054-.023-.119-.039-.238-.039-.188 0-.402.115-.544.376h-.015l-.046-.33h-.536zm2.191.046c.145 0 .252-.023.321-.054l-.076-.481c-.031.007-.046.007-.069.007-.046 0-.107-.038-.107-.169v-2.014h-.659v1.992c0 .428.146.719.59.719zm.552-.046h.658v-1.915h-.658zm.329-2.153c.214 0 .367-.137.367-.329 0-.191-.153-.329-.367-.329-.215 0-.368.138-.368.329 0 .192.153.329.368.329zm.774 2.153h.658v-1.256c.1-.092.169-.146.292-.146.13 0 .191.062.191.307v1.095h.659v-1.18c0-.474-.176-.781-.598-.781-.26 0-.452.131-.605.276h-.015l-.046-.23h-.536z" fill="#fff"/></g></svg>